<svg id="Layer_1" data-name="Layer 1" xmlns="http://www.w3.org/2000/svg" xmlns:xlink="http://www.w3.org/1999/xlink" viewBox="0 0 1609.77 475"><defs><style>.cls-1{fill:none;}.cls-2,.cls-7{fill:#335296;}.cls-3,.cls-8{fill:#93d4da;}.cls-4{clip-path:url(#clip-path);}.cls-5{clip-path:url(#clip-path-2);}.cls-6{clip-path:url(#clip-path-3);}.cls-7,.cls-8{fill-rule:evenodd;}.cls-9{isolation:isolate;}.cls-10{fill:#ef3e42;}</style><clipPath id="clip-path"><rect class="cls-1" x="-704.96" y="-203.17" width="1920" height="1080"/></clipPath><clipPath id="clip-path-2"><polygon class="cls-1" points="328.99 178.18 457.59 292.11 457.59 178.18 328.99 178.18"/></clipPath><clipPath id="clip-path-3"><polygon class="cls-1" points="53.97 178.28 182.57 292.2 285.11 292.2 285.11 178.27 53.97 178.28"/></clipPath></defs><title>LogoNuevHorizontal</title><polygon class="cls-2" points="183.26 19.89 326.82 19.89 326.82 163.46 470.38 163.46 470.38 307.02 326.82 307.02 326.82 450.58 183.26 450.58 183.26 307.02 39.7 307.02 39.7 163.46 183.26 163.46 183.26 19.89"/><polygon class="cls-3" points="57.56 201.77 63.81 201.77 63.81 208.01 70.05 208.01 70.05 214.26 63.81 214.26 63.81 220.5 57.56 220.5 57.56 214.26 51.32 214.26 51.32 208.01 57.56 208.01 57.56 201.77"/><g class="cls-4"><path class="cls-3" d="M317.86,409.68c-7.22,0-11-2.56-14.27-4.82-2.95-2-5.49-3.75-10.81-3.75s-7.87,1.74-10.82,3.75c-3.3,2.26-7,4.82-14.26,4.82s-11-2.56-14.27-4.82c-3-2-5.49-3.75-10.81-3.75s-7.87,1.74-10.81,3.75c-3.31,2.26-7.05,4.82-14.27,4.82s-11-2.56-14.26-4.82c-2.95-2-5.49-3.75-10.82-3.75V395c7.22,0,11,2.56,14.27,4.82,3,2,5.49,3.75,10.81,3.75s7.87-1.74,10.81-3.75c3.31-2.26,7.05-4.82,14.27-4.82s11,2.56,14.27,4.82c2.94,2,5.48,3.75,10.81,3.75s7.86-1.74,10.81-3.75c3.3-2.26,7.05-4.82,14.27-4.82s11,2.56,14.26,4.82c2.95,2,5.49,3.75,10.82,3.75Z"/><path class="cls-3" d="M307.61,354.2a3.09,3.09,0,0,0-3.07-1.46l-20.55,3-19.86-15.38a3.07,3.07,0,0,0-2.32-.61l-30.23,4.39-1.83-13a3.15,3.15,0,0,0-1.2-2,3.07,3.07,0,0,0-2.27-.58l-10.67,1.55a3,3,0,0,0-2.59,3.45v0l1.88,13-6.85,1a3.07,3.07,0,0,0-2.54,2.31l-4.84,19.9v1.44a1.09,1.09,0,0,0,.08.28v.1a2.83,2.83,0,0,0,.16.36.22.22,0,0,1,.05.08c0,.09.11.17.16.25l.1.12.12.15h0l0,.06L209,380.3a36.3,36.3,0,0,1,8.36,13.57.16.16,0,0,0,.07.16,8.36,8.36,0,0,1,1.21-.83,29.09,29.09,0,0,1,8.67-3.05,7.73,7.73,0,0,1,5.44-4.4c6.08-1.07,12-3.18,18-.25a14.7,14.7,0,0,1,3.84,2.74,20.87,20.87,0,0,1,2.26,1l2.24,1.14c.23.12.9.61,1.19.8h.1l-.27-.25q1.32.31.51.27h1c5.78-.45,11.49-1.37,17.26-2.34a9.16,9.16,0,0,1,7.57-3.12c2.54-3,5.34-6.65,8.1-10.67l12.92-17.52a3.08,3.08,0,0,0,.16-3.39m-99.92,12.59L211,353.3l5.25-.76,1.85,12.75Zm11.82-31.07,4.6-.67,1.41,10-4.56.66Zm4.62,28.69-1.85-12.75,12.13-1.76,1.85,12.75Zm18.19-2.64L240.47,349l12.42-1.81L254.74,360Zm18.48-2.68L259,346.35l2.46-.36,14.16,11Z"/><path class="cls-3" d="M317.86,396.16c-7.22,0-11-2.56-14.27-4.82-2.95-2-5.49-3.75-10.81-3.75s-7.87,1.73-10.82,3.75c-3.3,2.26-7,4.82-14.26,4.82s-11-2.56-14.27-4.82c-3-2-5.49-3.75-10.81-3.75s-7.87,1.73-10.81,3.75c-3.31,2.26-7.05,4.82-14.27,4.82s-11-2.56-14.26-4.82c-2.95-2-5.49-3.75-10.82-3.75v-6.13c7.22,0,11,2.56,14.27,4.82,3,2,5.49,3.75,10.81,3.75s7.87-1.73,10.81-3.75c3.31-2.26,7.05-4.82,14.27-4.82s11,2.56,14.27,4.82c2.94,2,5.48,3.75,10.81,3.75s7.86-1.73,10.81-3.75c3.3-2.26,7.05-4.82,14.27-4.82s11,2.56,14.26,4.82c2.95,2,5.49,3.75,10.82,3.75Z"/><path class="cls-3" d="M317.86,436.73c-7.22,0-11-2.56-14.27-4.82-2.95-2-5.49-3.75-10.81-3.75s-7.87,1.74-10.82,3.75c-3.3,2.26-7,4.82-14.26,4.82s-11-2.56-14.27-4.82c-3-2-5.49-3.75-10.81-3.75s-7.87,1.74-10.81,3.75c-3.31,2.26-7.05,4.82-14.27,4.82s-11-2.56-14.26-4.82c-2.95-2-5.49-3.75-10.82-3.75V422c7.22,0,11,2.56,14.27,4.82,3,2,5.49,3.75,10.81,3.75s7.87-1.74,10.81-3.75c3.31-2.26,7.05-4.82,14.27-4.82s11,2.56,14.27,4.82c2.94,2,5.48,3.75,10.81,3.75s7.86-1.74,10.81-3.75c3.3-2.26,7.05-4.82,14.27-4.82s11,2.56,14.26,4.82c2.95,2,5.49,3.75,10.82,3.75Z"/><path class="cls-3" d="M317.86,423.21c-7.22,0-11-2.56-14.27-4.82-2.95-2-5.49-3.75-10.81-3.75s-7.87,1.73-10.82,3.75c-3.3,2.26-7,4.82-14.26,4.82s-11-2.56-14.27-4.82c-3-2-5.49-3.75-10.81-3.75s-7.87,1.73-10.81,3.75c-3.31,2.26-7.05,4.82-14.27,4.82s-11-2.56-14.26-4.82c-2.95-2-5.49-3.75-10.82-3.75v-6.13c7.22,0,11,2.56,14.27,4.82,3,2,5.49,3.76,10.81,3.76s7.87-1.74,10.81-3.76c3.31-2.26,7.05-4.82,14.27-4.82s11,2.56,14.27,4.82c2.94,2,5.48,3.76,10.81,3.76s7.86-1.74,10.81-3.76c3.3-2.26,7.05-4.82,14.27-4.82s11,2.56,14.26,4.82c2.95,2,5.49,3.76,10.82,3.76Z"/></g><g class="cls-5"><rect class="cls-3" x="338.5" y="176.33" width="6.12" height="115.37"/><rect class="cls-3" x="329.08" y="176.33" width="6.12" height="115.37"/><rect class="cls-3" x="347.91" y="176.33" width="6.12" height="115.37"/><rect class="cls-3" x="357.33" y="176.33" width="6.12" height="115.37"/><rect class="cls-3" x="366.75" y="176.33" width="6.12" height="115.37"/><rect class="cls-3" x="376.16" y="176.33" width="6.12" height="115.37"/><rect class="cls-3" x="385.58" y="176.33" width="6.12" height="115.37"/><rect class="cls-3" x="394.99" y="176.33" width="6.12" height="115.37"/><rect class="cls-3" x="404.41" y="176.33" width="6.12" height="115.37"/><rect class="cls-3" x="413.82" y="176.33" width="6.12" height="115.37"/><rect class="cls-3" x="423.24" y="176.33" width="6.12" height="115.37"/><rect class="cls-3" x="432.66" y="176.33" width="6.12" height="115.37"/><rect class="cls-3" x="442.07" y="176.33" width="6.12" height="115.37"/><rect class="cls-3" x="451.49" y="176.33" width="6.12" height="115.37"/></g><g class="cls-6"><rect class="cls-3" x="63.48" y="176.42" width="6.12" height="115.37"/><rect class="cls-3" x="54.06" y="176.42" width="6.12" height="115.37"/><rect class="cls-3" x="72.89" y="176.42" width="6.12" height="115.37"/><rect class="cls-3" x="82.31" y="176.42" width="6.12" height="115.37"/><rect class="cls-3" x="91.72" y="176.42" width="6.12" height="115.37"/><rect class="cls-3" x="101.14" y="176.42" width="6.12" height="115.37"/><rect class="cls-3" x="110.56" y="176.42" width="6.12" height="115.37"/><rect class="cls-3" x="119.97" y="176.42" width="6.12" height="115.37"/><rect class="cls-3" x="129.39" y="176.42" width="6.12" height="115.37"/><rect class="cls-3" x="138.8" y="176.42" width="6.12" height="115.37"/><rect class="cls-3" x="148.22" y="176.42" width="6.12" height="115.37"/><rect class="cls-3" x="157.64" y="176.42" width="6.12" height="115.37"/><rect class="cls-3" x="167.05" y="176.42" width="6.12" height="115.37"/><rect class="cls-3" x="176.47" y="176.42" width="6.12" height="115.37"/><rect class="cls-3" x="195.58" y="177.46" width="6.12" height="115.37"/><rect class="cls-3" x="186.17" y="177.46" width="6.12" height="115.37"/><rect class="cls-3" x="205" y="177.46" width="6.12" height="115.37"/><rect class="cls-3" x="214.41" y="177.46" width="6.12" height="115.37"/><rect class="cls-3" x="223.83" y="177.46" width="6.12" height="115.37"/><rect class="cls-3" x="233.25" y="177.46" width="6.12" height="115.37"/><rect class="cls-3" x="242.66" y="177.46" width="6.12" height="115.37"/><rect class="cls-3" x="252.08" y="177.46" width="6.12" height="115.37"/><rect class="cls-3" x="261.49" y="177.46" width="6.12" height="115.37"/><rect class="cls-3" x="270.91" y="177.46" width="6.12" height="115.37"/><rect class="cls-3" x="280.33" y="177.46" width="6.12" height="115.37"/><rect class="cls-3" x="289.74" y="177.46" width="6.12" height="115.37"/><rect class="cls-3" x="299.16" y="177.46" width="6.12" height="115.37"/><rect class="cls-3" x="308.57" y="177.46" width="6.12" height="115.37"/></g><g class="cls-4"><polygon class="cls-3" points="317.86 178.27 285.11 178.27 285.11 292.2 324.31 292.2 446.46 292.2 317.86 178.27"/><polygon class="cls-7" points="223.57 370.36 227.47 370.36 227.47 374.15 230.57 371.98 232.81 375.17 228.91 377.9 232.81 380.62 230.57 383.82 227.47 381.64 227.47 385.43 223.57 385.43 223.57 381.64 220.46 383.82 218.22 380.62 222.12 377.9 218.22 375.17 220.46 371.98 223.57 374.15 223.57 370.36"/><polygon class="cls-8" points="132.94 261.61 140.92 261.61 140.92 269.37 147.28 264.92 151.86 271.46 143.89 277.04 151.86 282.62 147.28 289.15 140.92 284.7 140.92 292.46 132.94 292.46 132.94 284.7 126.58 289.15 122 282.62 129.97 277.04 122 271.46 126.58 264.92 132.94 269.37 132.94 261.61"/><polygon class="cls-2" points="286.41 247.51 206.69 176.81 365.87 176.89 286.41 247.51"/><polygon class="cls-8" points="265.78 184.18 247.29 171.51 269.7 172.13 262.18 151.02 279.94 164.69 286.28 143.19 292.61 164.69 310.38 151.02 302.86 172.13 325.27 171.51 306.78 184.18 325.27 196.85 302.86 196.23 310.38 217.35 292.61 203.68 286.28 225.18 279.94 203.68 262.18 217.35 269.7 196.23 247.29 196.85 265.78 184.18"/><path class="cls-2" d="M286.28,168.84a15.35,15.35,0,1,1-15.35,15.35h0a15.34,15.34,0,0,1,15.34-15.34h0"/><path class="cls-2" d="M118.27,187.21a14.56,14.56,0,1,1-14.56,14.56h0a14.56,14.56,0,0,1,14.56-14.56"/><path class="cls-3" d="M192.07,30.47A11.36,11.36,0,0,0,203.4,41H204a24.19,24.19,0,0,0,43.44,8.63,14.55,14.55,0,0,0,18.92-13.87,14.19,14.19,0,0,0-1-5.31Z"/><path class="cls-3" d="M191.94,306.61a22.15,22.15,0,0,0,39.52,0Z"/><path class="cls-3" d="M231.46,306.61a15.41,15.41,0,0,0,27.49,0Z"/><path class="cls-3" d="M206.79,152.07a13.12,13.12,0,0,0,23.41,0Z"/><path class="cls-3" d="M192.15,164.19a13.11,13.11,0,0,0,23.4,0Z"/><path class="cls-3" d="M221.43,164.19a13.12,13.12,0,0,0,23.41,0Z"/><path class="cls-3" d="M281.85,111.55a13.12,13.12,0,0,0,23.41,0Z"/><path class="cls-3" d="M267.2,123.67a13.11,13.11,0,0,0,23.41,0Z"/><path class="cls-3" d="M296.49,123.67a13.11,13.11,0,0,0,23.41,0Z"/><polygon class="cls-2" points="231.91 295.05 286.4 246.16 341.26 295.05 281.53 295.05 231.91 295.05"/><polygon class="cls-3" points="118.27 235.24 154.22 207.34 207.44 254.27 226.89 235.14 291.19 292.46 182.57 292.46 118.27 235.24"/><polygon class="cls-8" points="101.58 254.93 92.06 246.45 118.27 246.45 101.58 231.6 84.89 216.76 68.2 231.6 51.52 246.45 77.72 246.45 68.2 254.93 51.52 269.77 77.02 269.77 68.2 277.62 51.52 292.46 84.89 292.46 118.27 292.46 101.58 277.62 92.77 269.77 118.27 269.77 101.58 254.93"/><path class="cls-3" d="M315.63,30.44H277.88a33.51,33.51,0,0,0,37.75,17.47Z"/><path class="cls-3" d="M193.46,92.74a2.43,2.43,0,0,1-.43-4.83L287.33,71a2.43,2.43,0,0,1,.86,4.79h0l-94.3,16.94h-.43"/><path class="cls-3" d="M242.15,91.4a2.44,2.44,0,0,1-2.4-2l-1.91-10.68a2.43,2.43,0,1,1,4.75-1l0,.17,1.92,10.68a2.42,2.42,0,0,1-1.95,2.81h-.05a3.09,3.09,0,0,1-.43,0"/><path class="cls-3" d="M252.08,88.38s-14.23.67-23.78,5l-5.93,5s-20.6,4.26-21.43,18.13c0,0,5.65,6.12,21.76,3.22l19-3.41a32.89,32.89,0,0,0,8.09-4.65c4.63-3.46,11.69-10,11.69-10l36.41-8.79,10,8,5.64-2.71-.91-5.09,2.54-5.34-5.52-6.34,2.65-15.13s-5.92-2.12-7.57,1.37L296.9,88.4l-39.78,5.78Z"/><path class="cls-3" d="M214.64,123c-10.92,0-15.27-4.55-15.49-4.78a2.44,2.44,0,0,1-.64-1.8c.86-14.26,19-19.33,22.74-20.22l5.48-4.63a2.5,2.5,0,0,1,.56-.35C237.15,86.7,251.36,86,252,86a2.45,2.45,0,0,1,2,.83l4.16,4.8,37-5.38,7.32-19.41a.42.42,0,0,1,.08-.18c2.05-4.34,7.62-3.68,10.6-2.62a2.44,2.44,0,0,1,1.57,2.71l-2.45,14,4.67,5.4a2.43,2.43,0,0,1,.37,2.64l-2.21,4.64.78,4.32a2.45,2.45,0,0,1-1.35,2.63l-5.64,2.7a2.43,2.43,0,0,1-2.56-.29l-9.08-7.22-34.65,8.36c-1.67,1.53-7.37,6.7-11.41,9.72a35.41,35.41,0,0,1-8.76,5l-.36.1-19,3.41a48.34,48.34,0,0,1-8.49.81m-11.13-7.49c1.91,1.25,7.53,3.91,18.76,1.89L241.06,114a33.54,33.54,0,0,0,7.28-4.24c4.47-3.35,11.42-9.77,11.49-9.83a2.47,2.47,0,0,1,1.08-.58l33.94-8.19-37.38,5.43a2.45,2.45,0,0,1-2.19-.81L251,90.88c-3.47.27-14,1.31-21.43,4.6l-5.66,4.79a2.42,2.42,0,0,1-1.08.52c-.18,0-17.51,3.79-19.35,14.69m18.86-17.07Zm75.76-7.91a2.5,2.5,0,0,1,1.28.52l8.81,7,2.6-1.25-.59-3.27a2.44,2.44,0,0,1,.2-1.48l1.86-3.9L307.82,83a2.42,2.42,0,0,1-.56-2l2.25-12.86c-1.12-.13-2.23-.06-2.55.5l-7.78,20.63a2.46,2.46,0,0,1-1.05,1.24"/><path class="cls-3" d="M223,132.45a9.8,9.8,0,0,1-6.84-2.42c-3.85-3.52-3.39-9.46-3.37-9.71a2.43,2.43,0,1,1,4.85.41c-.08,1.06.09,4.15,1.81,5.72,1.2,1.08,3.13,1.39,5.72.93l25.61-4.6a2.43,2.43,0,0,1,1,4.75l-.18,0L226,132.16a15.89,15.89,0,0,1-3,.29"/><path class="cls-3" d="M225.55,132.2a2.42,2.42,0,0,1-2.39-2L221.33,120a2.43,2.43,0,0,1,4.79-.86l1.88,10.2a2.45,2.45,0,0,1-2,2.83h0a3.09,3.09,0,0,1-.43,0"/><path class="cls-3" d="M245,128.71a2.42,2.42,0,0,1-2.39-2l-1.89-10.52a2.43,2.43,0,0,1,4.78-.86l1.89,10.52a2.43,2.43,0,0,1-2,2.82H245"/><path class="cls-7" d="M244.08,110.72a10.21,10.21,0,1,1,10.2-10.22h0a10.23,10.23,0,0,1-10.2,10.21"/><polygon class="cls-8" points="242.18 93.2 245.97 93.2 245.97 96.88 248.99 94.77 251.16 97.87 247.38 100.51 251.16 103.16 248.99 106.26 245.97 104.15 245.97 107.83 242.18 107.83 242.18 104.15 239.17 106.26 237 103.16 240.78 100.51 237 97.87 239.17 94.77 242.18 96.88 242.18 93.2"/><path class="cls-2" d="M203.51,115.47s0-8.46,17.78-14.28l3.35,16s-14.47,3.16-21.13-1.68"/><path class="cls-2" d="M411.13,262.28a12.79,12.79,0,1,0,12.8-12.78h0a12.79,12.79,0,0,0-12.78,12.78"/><path class="cls-2" d="M423.91,277.57a15.29,15.29,0,1,1,15.29-15.29,15.3,15.3,0,0,1-15.29,15.29m0-25.57a10.28,10.28,0,1,0,10.28,10.28h0A10.29,10.29,0,0,0,423.91,252"/><path class="cls-2" d="M331.31,262.28a12.79,12.79,0,1,0,12.8-12.78h0a12.79,12.79,0,0,0-12.79,12.78"/><path class="cls-2" d="M344.1,277.57a15.29,15.29,0,1,1,15.29-15.29,15.3,15.3,0,0,1-15.29,15.29m0-25.57a10.28,10.28,0,1,0,10.28,10.28h0A10.29,10.29,0,0,0,344.1,252"/><path class="cls-2" d="M440,259.57l-7.53-12.79H416.29l-10.51,12.79h-46L352,246.78H336.66L329,259.57a5.21,5.21,0,0,1-6.24-3.21v-4.63h3.39l3.2-26.36h62.53l9.8,12.64,28.15,1.25,2.67,4.1s4.81,0,5.17,2.49a7.07,7.07,0,0,1-.18,3.65l.71,1.88h3.93v5.87Z"/><path class="cls-2" d="M327.63,262.25a7.5,7.5,0,0,1-7.18-4.92,2.47,2.47,0,0,1-.19-1V251.7a2.5,2.5,0,0,1,2.5-2.5h1.17L326.87,225a2.5,2.5,0,0,1,2.48-2.2h62.54a2.51,2.51,0,0,1,2,1L403,235.56l27,1.2a2.49,2.49,0,0,1,2,1.13l2,3c2.87.31,5.82,1.63,6.24,4.57a12.68,12.68,0,0,1,.06,3.37h1.92a2.5,2.5,0,0,1,2.5,2.5h0v5.87A2.5,2.5,0,0,1,444,259l-2.14,2.32a2.53,2.53,0,0,1-2.11.79,2.49,2.49,0,0,1-1.89-1.22L431,249.29H417.47l-9.75,11.87a2.51,2.51,0,0,1-1.94.91h-46a2.52,2.52,0,0,1-2.14-1.19l-7.1-11.59H338l-6.93,11.57a2.58,2.58,0,0,1-1.47,1.12,7.5,7.5,0,0,1-2.05.27m-2.36-6.45a2.51,2.51,0,0,0,2.2,1.45l7-11.75a2.5,2.5,0,0,1,2.15-1.22H352a2.49,2.49,0,0,1,2.13,1.19l7.11,11.6H404.6l9.76-11.88a2.48,2.48,0,0,1,1.93-.91h13.82l-1.67-2.57-26.87-1.19a2.56,2.56,0,0,1-1.87-1l-9-11.68H331.57L328.63,252a2.51,2.51,0,0,1-2.48,2.21h-.88Zm114.27-1.92.08.13v-.13Zm-4.42-7.52.12.2a.33.33,0,0,1,0-.14l-.1-.06"/><path class="cls-2" d="M384.94,220.05H337.38a3.51,3.51,0,0,1-.53-7,4.69,4.69,0,0,1,.53,0h47.56a3.51,3.51,0,0,1,0,7"/><path class="cls-2" d="M402.4,271.36H365.92a3.51,3.51,0,0,1-.53-7h37a3.51,3.51,0,0,1,.53,7h-.53"/><polygon class="cls-3" points="397.49 236.86 389.69 226.36 378 226.36 378 236.86 397.49 236.86"/><path class="cls-8" d="M350.4,262.28a6.3,6.3,0,1,1-6.3-6.3h0a6.31,6.31,0,0,1,6.3,6.3"/><path class="cls-8" d="M430.22,262.28a6.31,6.31,0,1,1-6.32-6.3h0a6.32,6.32,0,0,1,6.31,6.3"/><path class="cls-8" d="M345.35,249.5A10.51,10.51,0,1,1,355.86,239h0a10.54,10.54,0,0,1-10.51,10.51"/><polygon class="cls-7" points="343.4 231.45 347.3 231.45 347.3 235.24 350.4 233.07 352.64 236.26 348.75 238.99 352.64 241.71 350.4 244.91 347.3 242.73 347.3 246.52 343.4 246.52 343.4 242.73 340.29 244.91 338.06 241.71 341.95 238.99 338.06 236.26 340.29 233.07 343.4 235.24 343.4 231.45"/><polygon class="cls-2" points="213.81 295.05 221.89 267.58 230.45 295.05 213.81 295.05"/><polygon class="cls-2" points="230.61 294.83 241.24 258.69 252.5 294.83 230.61 294.83"/><path class="cls-3" d="M294.66,308.64a10.49,10.49,0,0,1,12.35,0l5-5a17.49,17.49,0,0,0-22.37,0Z"/><path class="cls-3" d="M292.37,323.29a10.51,10.51,0,0,1,0-12.36l-5-5a17.51,17.51,0,0,0,0,22.36Z"/><path class="cls-3" d="M307,325.58a10.49,10.49,0,0,1-12.35,0l-5,5a17.52,17.52,0,0,0,22.37,0Z"/><path class="cls-3" d="M309.3,310.93a10.47,10.47,0,0,1,0,12.36l5,5a17.51,17.51,0,0,0,0-22.36Z"/><path class="cls-2" d="M219.55,252.3a18.29,18.29,0,0,0-33,0Z"/><path class="cls-2" d="M186.57,252.3a18.28,18.28,0,0,0-33,0Z"/><path class="cls-2" d="M209.81,228.9a18.29,18.29,0,0,0-23.32,23.32Z"/><path class="cls-2" d="M186.49,252.22a18.28,18.28,0,0,0-23.31,23.31Z"/><path class="cls-2" d="M209.37,275.53a18.28,18.28,0,0,0-23.31-23.31Z"/><path class="cls-2" d="M186.06,252.22a18.29,18.29,0,0,0-23.32-23.32Z"/><rect class="cls-2" x="181.7" y="248.32" width="8.84" height="44.96"/></g><g class="cls-9"><g class="cls-9"><path class="cls-2" d="M583,28.2,566,134.19h45.81q5.73,0,4.62,5.86l-3,19.22q-1.11,5.88-6.28,5.87h-72.3q-5.75,0-4.63-5.88L551.14,28.14q.75-5.82,6.15-5.82h21.07Q584.12,22.32,583,28.2Z"/><path class="cls-2" d="M633.2,159.27,654.12,28.16c.49-3.9,2.47-5.84,5.94-5.84h21.15q5.74,0,4.63,5.68l-21,131.29q-1.11,5.85-6.11,5.85H637.83Q632.09,165.14,633.2,159.27Z"/><path class="cls-2" d="M775.35,110.32H729.2l-7.88,49c-.73,3.92-2.74,5.87-6,5.87h-20.4q-5.67,0-4.56-5.78L711.27,28.24q.74-5.93,6-5.92H791q5.55,0,4.81,5.86L793,45.58q-.74,5.87-6.09,5.87H738.67l-4.88,30.34H779.6q5.55,0,4.62,5.87l-2.77,17Q780.52,110.32,775.35,110.32Z"/></g><g class="cls-9"><path class="cls-2" d="M885.42,106.47H839.14L834.35,136h49.5q5.55,0,4.81,5.87l-2.78,17.19q-1.29,6.08-6.28,6.07H804.11q-5.76,0-4.64-5.9L820.68,28.18q.74-5.87,5.91-5.86h74.65q5.53,0,4.8,5.86l-3,17.4q-.74,6.08-6.09,6.07H848l-4.37,26.91h46q5.16,0,4.61,5.86l-2.77,16.19C890.9,104.52,888.86,106.47,885.42,106.47Z"/></g><g class="cls-9"><path class="cls-2" d="M981.39,79h39q5.36,0,4.62,5.87l-10.53,64.94q-.74,4.44-5.36,7.28-16.8,10.3-43.41,10.31-26.24,0-40.73-13.35t-14.5-40.66a134.85,134.85,0,0,1,1.66-20.23q6.11-37.83,25.22-55.53t50.71-17.7q25.31,0,38.79,10.32,3.87,3.24,1.66,7.69l-7.94,14.76q-2.77,5.46-7.95,2.83a52.91,52.91,0,0,0-23.27-5.26q-20.33,0-30.76,10T944.45,93.73a89.34,89.34,0,0,0-1.29,14.77q0,15.16,7.29,21.94t22.45,6.78a41.06,41.06,0,0,0,16.07-3l4.62-29.34H977.52q-5.55,0-4.44-5.66l2.22-14.36C975.91,80.92,978,79,981.39,79Z"/></g><g class="cls-9"><path class="cls-2" d="M1087.8,167.36q-23.1,0-35.1-10.51t-12-31.16a82.66,82.66,0,0,1,1.11-13.15l13.77-84.34q.73-5.88,6.08-5.88h20.83q5.71,0,4.61,5.87L1074,109.52a54.93,54.93,0,0,0-.78,9.1q0,9.1,4.15,13.55t13.21,4.44q11.09,0,17.09-6.67t8.22-20.43L1129,28.18q1.11-5.87,6.12-5.86h21q5.73,0,4.63,5.88l-13.58,84.34q-4.44,27.51-18.94,41.17T1087.8,167.36Z"/></g><g class="cls-9"><path class="cls-2" d="M1221.65,22.32h25.87q5,0,6.09,5.46l20,130.48a7.11,7.11,0,0,1-.92,5,4.55,4.55,0,0,1-4.06,1.92h-21.43c-3.58,0-5.54-1.82-5.91-5.46l-3.14-21.85h-42.86l-10.16,21.85q-2.4,5.46-7,5.46h-22.53c-1.85,0-3.08-.64-3.7-1.93s-.43-3,.56-5l62.06-130.48a11.07,11.07,0,0,1,2.77-4.21A6.85,6.85,0,0,1,1221.65,22.32Zm-15.81,86.58h30.74l-6.46-52.39-.37-.06Z"/><path class="cls-2" d="M1316.44,22.32h42q49.52,0,49.52,37.83A95.34,95.34,0,0,1,1407,72.3q-5.38,33.24-35.62,42.56l20.5,42.89a5.43,5.43,0,0,1,.37,5.09,4.1,4.1,0,0,1-4.06,2.3h-20.1a7.24,7.24,0,0,1-7.19-4.59l-18.73-40.93-15.49,0-6.46,39.65c-.72,3.94-2.71,5.9-6,5.9h-20.1c-3.88,0-5.44-1.93-4.71-5.77l20.93-131.12Q1311.09,22.33,1316.44,22.32Zm14.77,69.38h17.2q12.77,0,19-4.75t7.86-15.07a35,35,0,0,0,.55-5.87q0-7.68-5-11t-15.89-3.34h-17.18Z"/><path class="cls-2" d="M1456.51,165.14h-39.34c-3.82,0-5.35-1.95-4.62-5.86l21-131.1q.74-5.87,5.91-5.86h36.4q28.06,0,42.21,12.24t14.13,39.14a125.57,125.57,0,0,1-1.48,19.22q-5.91,38.64-23.74,55.43T1456.51,165.14Zm15.18-112.48h-10.33L1448.2,134.8h10.34q17.37,0,26.79-9t13.48-32.87a116.77,116.77,0,0,0,1.3-14.16q0-14.57-7-20.33T1471.69,52.66Z"/></g></g><g class="cls-9"><g class="cls-9"><path class="cls-10" d="M595.05,326.82a46.65,46.65,0,0,0,21.4-5.21q5.67-2.4,6.95,3l3.84,14.63c.74,2.67-.67,5.2-4.2,7.61q-15.74,9.81-35.85,9.81-24.69,0-38.68-13.62t-14-40.26a119.85,119.85,0,0,1,1.65-19Q542,247.11,560,228.87t46.18-18.22a72.51,72.51,0,0,1,20.85,2.9q9.69,2.91,14.82,6.91a7.47,7.47,0,0,1,2.83,3.31c.3,1,0,2.43-1,4.3l-8.41,14.42q-2.74,5.22-7.86,2.81-8.05-4.61-19.39-4.61-17.19,0-26.79,10.31T568,283.75a116.45,116.45,0,0,0-1.28,14.42q0,14.83,6.95,21.74T595.05,326.82Z"/></g><g class="cls-9"><path class="cls-10" d="M711.92,210.65q23.6,0,36.67,13.32t13.08,39.55A116.59,116.59,0,0,1,759.84,284q-11.72,72.72-68,72.71-23.59,0-36.67-13.22T642.05,304a135.74,135.74,0,0,1,1.65-20.43Q655.76,210.65,711.92,210.65ZM694.91,327q26.15,0,33.1-43.27a101,101,0,0,0,1.65-16.82q0-26.64-20.85-26.64-26.16,0-33.1,43.46a101.16,101.16,0,0,0-1.65,16.83Q674.06,327,694.91,327Z"/><path class="cls-10" d="M864.09,308q0,23.83-15.73,36.15t-39.87,12.32a113.91,113.91,0,0,1-24.42-2.5q-11.43-2.5-17.47-6.31-4.2-2.41-2-7.21l7.69-15.23q2.73-5.4,7.31-3.4,11.7,6,26.89,6a43.71,43.71,0,0,0,17.83-3.51q8-3.49,8-11.71c0-3.48-1.65-6.41-4.94-8.82s-8.36-5-15.18-7.81q-15-6.21-23.6-14.82T780,257.52q0-23.64,14.63-35.16t39-11.51q23.76,0,36.94,8,4,2.61,1.83,7.21L865,240.49q-2.73,5.61-7.49,3.4a63.75,63.75,0,0,0-24-4.2q-21.78,0-21.77,13.82a9.93,9.93,0,0,0,4.39,8.41q4.4,3.21,14.81,8,7.88,3.61,12.62,6.41a73.92,73.92,0,0,1,10.07,7.31,28.33,28.33,0,0,1,7.86,10.52A34.91,34.91,0,0,1,864.09,308Z"/></g><g class="cls-9"><path class="cls-10" d="M883.48,237.69l3.11-18.83c.48-3.87,2.44-5.81,5.85-5.81h85.71q5.67,0,4.57,5.81l-2.92,18.83q-1.11,6-6.22,6H946.33l-16.9,105c-.74,3.87-2.75,5.81-6.06,5.81H902.63q-5.68,0-4.59-5.83l16.9-104.94H888.05Q882.56,243.69,883.48,237.69Z"/></g><g class="cls-9"><path class="cls-10" d="M1018.77,213.05h25.6q4.94,0,6,5.41l19.75,129.19a7,7,0,0,1-.91,4.9,4.52,4.52,0,0,1-4,1.91H1044c-3.54,0-5.49-1.81-5.86-5.41L1035,327.42H992.61l-10.06,21.63q-2.37,5.4-6.95,5.41H953.29q-2.74,0-3.66-1.92c-.61-1.27-.42-2.91.55-4.93l61.45-129.19a10.88,10.88,0,0,1,2.75-4.18A6.85,6.85,0,0,1,1018.77,213.05Zm-15.66,85.72h30.44l-6.41-51.87-.36-.06Z"/><path class="cls-10" d="M1165.1,213.05h41.55q49,0,49,37.45a95.06,95.06,0,0,1-.91,12q-5.34,32.91-35.28,42.14l20.3,42.46a5.36,5.36,0,0,1,.37,5,4.05,4.05,0,0,1-4,2.28h-19.9a7.18,7.18,0,0,1-7.12-4.55l-18.55-40.52-15.33,0-6.39,39.26q-1.08,5.83-5.92,5.84H1143q-5.76,0-4.66-5.72l20.72-129.82C1159.57,215,1161.57,213.05,1165.1,213.05Zm14.63,68.7h17q12.63,0,18.77-4.71t7.78-14.92a34.29,34.29,0,0,0,.55-5.81q0-7.6-4.94-10.91t-15.73-3.31h-17Z"/><path class="cls-10" d="M1261.17,348.65l20.72-129.82c.48-3.85,2.45-5.78,5.87-5.78h20.94q5.7,0,4.6,5.63l-20.75,130q-1.1,5.79-6.06,5.79h-20.73Q1260.08,354.46,1261.17,348.65Z"/><path class="cls-10" d="M1382.43,326.82a46.65,46.65,0,0,0,21.4-5.21q5.67-2.4,7,3l3.84,14.63q1.1,4-4.21,7.61-15.72,9.81-35.84,9.81-24.71,0-38.69-13.62t-14-40.26a119.85,119.85,0,0,1,1.65-19q5.85-36.65,23.87-54.88t46.18-18.22a72.61,72.61,0,0,1,20.85,2.9q9.69,2.91,14.81,6.91a7.44,7.44,0,0,1,2.84,3.31c.3,1,0,2.43-1,4.3l-8.41,14.42q-2.75,5.22-7.87,2.81-8-4.61-19.38-4.61-17.2,0-26.8,10.31t-13.26,32.75a116.45,116.45,0,0,0-1.28,14.42q0,14.83,7,21.74T1382.43,326.82Z"/><path class="cls-10" d="M1493.56,213.05h25.61q4.93,0,6,5.41L1545,347.65a7,7,0,0,1-.92,4.9,4.49,4.49,0,0,1-4,1.91H1518.8c-3.54,0-5.48-1.81-5.85-5.41l-3.11-21.63h-42.43l-10.06,21.63q-2.37,5.4-6.95,5.41h-22.31q-2.74,0-3.66-1.92c-.61-1.27-.42-2.91.55-4.93l61.45-129.19a11,11,0,0,1,2.74-4.18A6.88,6.88,0,0,1,1493.56,213.05Zm-15.66,85.72h30.44l-6.4-51.87-.36-.06Z"/></g></g><g class="cls-9"><g class="cls-9"><path class="cls-2" d="M552,420h10.53c1,0,1.38.53,1.24,1.59l-2.84,17.53a2.81,2.81,0,0,1-1.45,2q-4.53,2.79-11.72,2.79t-11-3.61q-3.91-3.6-3.91-11a36.45,36.45,0,0,1,.45-5.46q1.63-10.22,6.81-15t13.69-4.78c4.55,0,8.05.93,10.47,2.79a1.56,1.56,0,0,1,.45,2.08l-2.14,4a1.43,1.43,0,0,1-2.15.77,14.23,14.23,0,0,0-6.28-1.42q-5.49,0-8.31,2.7T542,424a23.33,23.33,0,0,0-.35,4c0,2.73.65,4.71,2,5.93s3.33,1.83,6.06,1.83A11.22,11.22,0,0,0,554,435l1.24-7.92h-4.34c-1,0-1.39-.51-1.19-1.53l.6-3.88C550.5,420.57,551.05,420,552,420Z"/></g><g class="cls-9"><path class="cls-2" d="M574.15,404.75h11.34q13.37,0,13.37,10.21a27.27,27.27,0,0,1-.25,3.29q-1.46,9-9.62,11.49l5.53,11.58a1.46,1.46,0,0,1,.1,1.38,1.09,1.09,0,0,1-1.09.61H588.1a2,2,0,0,1-1.94-1.23L581.1,431h-4.18l-1.74,10.7q-.3,1.59-1.62,1.59h-5.43c-1,0-1.47-.52-1.27-1.55l5.65-35.41C572.64,405.28,573.19,404.75,574.15,404.75Zm4,18.74h4.65a8.35,8.35,0,0,0,5.12-1.29,6.11,6.11,0,0,0,2.12-4.07,9.4,9.4,0,0,0,.15-1.58,3.31,3.31,0,0,0-1.35-3,7.92,7.92,0,0,0-4.29-.9H579.9Z"/></g><g class="cls-9"><path class="cls-2" d="M619.48,404.09q6.43,0,10,3.64t3.57,10.78a31.89,31.89,0,0,1-.5,5.58q-3.19,19.83-18.56,19.83-6.43,0-10-3.61t-3.56-10.76a36.91,36.91,0,0,1,.45-5.57Q604.17,404.09,619.48,404.09Zm-4.64,31.74q7.14,0,9-11.8a27.62,27.62,0,0,0,.45-4.59q0-7.26-5.69-7.26-7.12,0-9,11.85a28.61,28.61,0,0,0-.44,4.59Q609.16,435.84,614.84,435.83Z"/><path class="cls-2" d="M649.31,443.92q-6.24,0-9.48-2.85t-3.24-8.41a22.38,22.38,0,0,1,.3-3.55l3.72-22.77c.13-1.06.68-1.59,1.64-1.59h5.62c1,0,1.45.53,1.25,1.58l-3.54,22a15,15,0,0,0-.21,2.46,5.19,5.19,0,0,0,1.12,3.66,4.69,4.69,0,0,0,3.57,1.2,5.89,5.89,0,0,0,4.61-1.8,10.71,10.71,0,0,0,2.22-5.52l3.54-22c.2-1.05.75-1.58,1.65-1.58h5.65q1.56,0,1.26,1.59l-3.67,22.77q-1.2,7.44-5.11,11.12T649.31,443.92Z"/><path class="cls-2" d="M704.18,406.33l-5.7,35.41c-.2,1.05-.75,1.57-1.66,1.57H691.4a1.62,1.62,0,0,1-1.71-1l-8.5-21.82-3.42,21.26c-.2,1.06-.74,1.59-1.63,1.59h-5.29c-1,0-1.44-.52-1.24-1.58l5.65-35.4a1.54,1.54,0,0,1,1.65-1.58h5.35a1.68,1.68,0,0,1,1.75,1l8.45,21.79,3.42-21.25c.13-1.06.66-1.58,1.6-1.58h5.4C703.88,404.75,704.32,405.28,704.18,406.33Z"/></g><g class="cls-9"><path class="cls-2" d="M717,443.31H706.32c-1,0-1.44-.52-1.24-1.58l5.68-35.4c.13-1.05.66-1.58,1.6-1.58h9.82q7.59,0,11.4,3.3t3.82,10.57a34.48,34.48,0,0,1-.4,5.19q-1.61,10.44-6.41,15T717,443.31ZM721,412.94h-2.78l-3.56,22.18h2.79q4.69,0,7.24-2.43t3.64-8.88a31.82,31.82,0,0,0,.35-3.82q0-3.93-1.9-5.49C725.56,413.46,723.64,412.94,721,412.94Z"/></g><g class="cls-9"><path class="cls-2" d="M744.82,443.1l-4.24,6.72a1.38,1.38,0,0,1-1.25.76h-1.79a.63.63,0,0,1-.65-.41,1.16,1.16,0,0,1,.15-1l3-5.9h-1.54c-.94,0-1.33-.51-1.2-1.52l1-5.8a1.6,1.6,0,0,1,1.69-1.47H745c1.07,0,1.5.49,1.3,1.47l-.85,5.19A4.59,4.59,0,0,1,744.82,443.1Z"/><path class="cls-2" d="M781.81,404.75h7a1.57,1.57,0,0,1,1.64,1.47l5.39,35.24a1.93,1.93,0,0,1-.25,1.34,1.24,1.24,0,0,1-1.1.51H788.7a1.45,1.45,0,0,1-1.6-1.47l-.85-5.9H774.68l-2.74,5.9a2.07,2.07,0,0,1-1.9,1.47H764a1,1,0,0,1-1-.52,1.51,1.51,0,0,1,.15-1.34l16.76-35.24a2.83,2.83,0,0,1,.75-1.13A1.82,1.82,0,0,1,781.81,404.75Zm-4.27,23.38h8.3L784.1,414l-.1,0Z"/><path class="cls-2" d="M800.24,441.73l5.65-35.4c.13-1.06.67-1.58,1.6-1.58h5.71c1,0,1.45.51,1.26,1.53l-5.66,35.46c-.2,1.05-.75,1.57-1.65,1.57h-5.66C800.46,443.31,800,442.79,800.24,441.73Z"/><path class="cls-2" d="M823,404.75H834.3q13.38,0,13.37,10.21a27,27,0,0,1-.24,3.29q-1.45,9-9.63,11.49l5.54,11.58a1.46,1.46,0,0,1,.1,1.38,1.1,1.1,0,0,1-1.09.61h-5.43a2,2,0,0,1-1.94-1.23L829.92,431h-4.18L824,441.72c-.19,1.06-.73,1.59-1.61,1.59H817c-1.05,0-1.47-.52-1.27-1.55l5.65-35.41C821.46,405.28,822,404.75,823,404.75Zm4,18.74h4.64a8.33,8.33,0,0,0,5.12-1.29,6.07,6.07,0,0,0,2.13-4.07,9.4,9.4,0,0,0,.15-1.58,3.31,3.31,0,0,0-1.35-3,7.92,7.92,0,0,0-4.29-.9h-4.64Z"/></g></g><g class="cls-9"><path class="cls-2" d="M893.67,424.14a19.4,19.4,0,0,1-4.57,12.14l3.56,5.46a1.09,1.09,0,0,1,.05,1.06.82.82,0,0,1-.79.51h-5a2.21,2.21,0,0,1-2.08-.9l-1.23-1.71a16.4,16.4,0,0,1-10.28,3.11,15,15,0,0,1-9.3-2.76,9,9,0,0,1-3.67-7.57,12.07,12.07,0,0,1,2.81-8.06,16,16,0,0,1,7.51-4.86L870,419.5a11.52,11.52,0,0,1-1.74-6.12,8.67,8.67,0,0,1,1.67-5.49,8.56,8.56,0,0,1,4.16-3,18.73,18.73,0,0,1,5.79-.82,16.43,16.43,0,0,1,7.38,1.42,1.48,1.48,0,0,1,.8,2l-1.3,3.16a1.47,1.47,0,0,1-2,1,14.24,14.24,0,0,0-4.4-.76c-3.22,0-4.83,1-4.83,3.17,0,.91.61,2.3,1.83,4.16l8,12.2a10.08,10.08,0,0,0,1.42-3.21,17.13,17.13,0,0,0,.34-3.75c0-1.1.48-1.65,1.45-1.65h4.09C893.33,421.9,893.67,422.65,893.67,424.14Zm-18.2,12.24a8.22,8.22,0,0,0,4.67-1.19l-6.33-9.67q-4.87,1.92-4.88,6.27a4,4,0,0,0,1.67,3.33A8,8,0,0,0,875.47,436.38Z"/></g><g class="cls-9"><g class="cls-9"><path class="cls-2" d="M937.12,430.64q0,6.51-4.29,9.86A17.09,17.09,0,0,1,922,443.86a31.38,31.38,0,0,1-6.66-.68,15.48,15.48,0,0,1-4.77-1.72,1.37,1.37,0,0,1-.55-2l2.1-4.15c.5-1,1.16-1.29,2-.93a15.83,15.83,0,0,0,7.33,1.64,11.91,11.91,0,0,0,4.86-1,3.26,3.26,0,0,0,2.17-3.19,2.91,2.91,0,0,0-1.35-2.41,20.75,20.75,0,0,0-4.14-2.13,19.34,19.34,0,0,1-6.43-4,8.71,8.71,0,0,1-2.34-6.44q0-6.45,4-9.59t10.63-3.14q6.48,0,10.08,2.18a1.39,1.39,0,0,1,.5,2l-2,3.93c-.5,1-1.18,1.33-2,.93a17.41,17.41,0,0,0-6.53-1.15q-5.94,0-5.94,3.77a2.71,2.71,0,0,0,1.2,2.3,26,26,0,0,0,4,2.18c1.43.66,2.58,1.24,3.44,1.75a20.79,20.79,0,0,1,2.75,2,7.7,7.7,0,0,1,2.14,2.87A9.46,9.46,0,0,1,937.12,430.64Z"/><path class="cls-2" d="M963.58,427.47h-12.5l-1.29,8h13.37c1,0,1.43.53,1.29,1.58l-.74,4.65c-.24,1.09-.8,1.63-1.7,1.63H941.62c-1,0-1.45-.53-1.25-1.59l5.73-35.39c.13-1.05.66-1.58,1.6-1.58h20.15c1,0,1.43.53,1.3,1.58l-.8,4.7c-.13,1.09-.68,1.64-1.65,1.64H953.49l-1.18,7.26h12.42c.93,0,1.34.53,1.24,1.59l-.74,4.37C965.06,427,964.51,427.47,963.58,427.47Z"/><path class="cls-2" d="M985.63,404.75h7a1.57,1.57,0,0,1,1.64,1.47l5.39,35.24a1.93,1.93,0,0,1-.25,1.34,1.24,1.24,0,0,1-1.1.51h-5.78a1.45,1.45,0,0,1-1.6-1.47l-.85-5.9H978.5l-2.74,5.9a2.07,2.07,0,0,1-1.9,1.47h-6.08a1,1,0,0,1-1-.52,1.51,1.51,0,0,1,.15-1.34l16.76-35.24a2.83,2.83,0,0,1,.75-1.13A1.82,1.82,0,0,1,985.63,404.75Zm-4.27,23.38h8.31L987.92,414l-.1,0Z"/><path class="cls-2" d="M1036.56,434.9a1.14,1.14,0,0,1-1.09-.76l-5.53-14.2-3.51,21.79c-.2,1.06-.75,1.58-1.65,1.58h-5.4c-1,0-1.45-.52-1.26-1.58l5.66-35.4c.13-1.06.68-1.58,1.64-1.58h5.09c.87,0,1.4.31,1.6.93L1038.4,422,1050,405.68a2.12,2.12,0,0,1,1.75-.93h5.39c1,0,1.45.53,1.25,1.58l-5.65,35.4c-.2,1.06-.75,1.58-1.65,1.58h-5.41c-1,0-1.45-.52-1.25-1.58l3.51-21.79-10.11,14.2A1.38,1.38,0,0,1,1036.56,434.9Z"/><path class="cls-2" d="M1082.4,427.47h-12.5l-1.3,8H1082c1,0,1.43.53,1.3,1.58l-.75,4.65c-.23,1.09-.8,1.63-1.69,1.63h-20.39c-1,0-1.45-.53-1.25-1.59l5.72-35.39c.14-1.05.67-1.58,1.6-1.58h20.16c1,0,1.43.53,1.29,1.58l-.79,4.7c-.14,1.09-.69,1.64-1.65,1.64H1072.3l-1.18,7.26h12.42c.93,0,1.35.53,1.25,1.59l-.75,4.37C1083.87,427,1083.33,427.47,1082.4,427.47Z"/><path class="cls-2" d="M1099.63,443.31H1089c-1,0-1.45-.52-1.25-1.58l5.69-35.4c.13-1.05.66-1.58,1.59-1.58h9.83q7.58,0,11.4,3.3t3.81,10.57a33.22,33.22,0,0,1-.4,5.19q-1.59,10.44-6.41,15T1099.63,443.31Zm4.1-30.37h-2.79l-3.55,22.18h2.79c3.12,0,5.54-.81,7.23-2.43s2.91-4.58,3.64-8.88a29.83,29.83,0,0,0,.35-3.82q0-3.93-1.89-5.49T1103.73,412.94Z"/><path class="cls-2" d="M1122.38,441.73l5.65-35.4c.13-1.06.66-1.58,1.6-1.58h5.71c1,0,1.45.51,1.25,1.53l-5.65,35.46c-.2,1.05-.76,1.57-1.66,1.57h-5.65C1122.59,443.31,1122.18,442.79,1122.38,441.73Z"/><path class="cls-2" d="M1155.45,435.78a12.76,12.76,0,0,0,5.83-1.42c1-.44,1.67-.17,1.9.82l1,4c.2.73-.19,1.42-1.15,2.08a18.13,18.13,0,0,1-9.78,2.68q-6.73,0-10.55-3.72t-3.81-11a32.72,32.72,0,0,1,.45-5.19q1.59-10,6.5-15a17,17,0,0,1,12.6-5,19.71,19.71,0,0,1,5.69.8,12.19,12.19,0,0,1,4,1.88,2,2,0,0,1,.77.9,1.75,1.75,0,0,1-.27,1.18l-2.3,3.93a1.45,1.45,0,0,1-2.14.76,10.59,10.59,0,0,0-5.29-1.25,9.52,9.52,0,0,0-7.31,2.81q-2.61,2.82-3.61,8.93a30.16,30.16,0,0,0-.35,3.93q0,4.05,1.89,5.93C1150.88,435.15,1152.82,435.78,1155.45,435.78Z"/><path class="cls-2" d="M1185.76,404.75h7a1.58,1.58,0,0,1,1.65,1.47l5.38,35.24a1.88,1.88,0,0,1-.25,1.34,1.22,1.22,0,0,1-1.09.51h-5.79a1.45,1.45,0,0,1-1.6-1.47l-.84-5.9h-11.57l-2.75,5.9a2.05,2.05,0,0,1-1.89,1.47h-6.09a1,1,0,0,1-1-.52,1.58,1.58,0,0,1,.15-1.34l16.76-35.24a2.83,2.83,0,0,1,.75-1.13A1.85,1.85,0,0,1,1185.76,404.75Zm-4.27,23.38h8.3L1188,414l-.1,0Z"/><path class="cls-2" d="M1218.17,406.34,1213.56,435h12.37c1,0,1.45.53,1.25,1.58l-.8,5.19c-.2,1.06-.77,1.58-1.7,1.58h-19.52c-1,0-1.45-.52-1.25-1.58l5.65-35.41a1.55,1.55,0,0,1,1.66-1.57h5.69Q1218.47,404.75,1218.17,406.34Z"/><path class="cls-2" d="M1269,427.47h-12.5l-1.29,8h13.37c1,0,1.43.53,1.29,1.58l-.74,4.65c-.24,1.09-.8,1.63-1.7,1.63H1247c-1,0-1.45-.53-1.25-1.59l5.73-35.39c.13-1.05.66-1.58,1.6-1.58h20.15c1,0,1.43.53,1.3,1.58l-.8,4.7c-.13,1.09-.68,1.64-1.65,1.64h-13.21l-1.18,7.26h12.42c.93,0,1.35.53,1.24,1.59l-.74,4.37C1270.43,427,1269.88,427.47,1269,427.47Z"/></g><g class="cls-9"><path class="cls-2" d="M1283.49,443.31h-6.58q-1.32,0-1.5-1.47l-4.94-35.23c-.17-1.24.24-1.86,1.22-1.86h5.52c.9,0,1.4.52,1.5,1.57l2.09,18.51.49,8.82h.15l3.4-8.91,8-18.52a1.89,1.89,0,0,1,1.89-1.47h6.14a1,1,0,0,1,1,.52,1.66,1.66,0,0,1-.1,1.34l-16.32,35.23A2.24,2.24,0,0,1,1283.49,443.31Z"/></g><g class="cls-9"><path class="cls-2" d="M1310.9,404.75h7a1.58,1.58,0,0,1,1.65,1.47l5.38,35.24a1.88,1.88,0,0,1-.25,1.34,1.22,1.22,0,0,1-1.09.51h-5.79a1.45,1.45,0,0,1-1.6-1.47l-.85-5.9h-11.57l-2.74,5.9a2.05,2.05,0,0,1-1.89,1.47H1293a1,1,0,0,1-1-.52,1.58,1.58,0,0,1,.15-1.34L1309,406.21a2.83,2.83,0,0,1,.75-1.13A1.85,1.85,0,0,1,1310.9,404.75Zm-4.28,23.38h8.31L1313.18,414l-.1,0Z"/></g><g class="cls-9"><path class="cls-2" d="M1345.09,435.78a12.84,12.84,0,0,0,5.84-1.42c1-.44,1.66-.17,1.89.82l1,4c.2.73-.18,1.42-1.15,2.08a18.12,18.12,0,0,1-9.77,2.68q-6.75,0-10.55-3.72t-3.82-11A32.72,32.72,0,0,1,1329,424q1.59-10,6.51-15a16.94,16.94,0,0,1,12.59-5,19.71,19.71,0,0,1,5.69.8,12.19,12.19,0,0,1,4,1.88,2,2,0,0,1,.77.9,1.75,1.75,0,0,1-.27,1.18l-2.3,3.93a1.45,1.45,0,0,1-2.14.76,10.59,10.59,0,0,0-5.29-1.25,9.52,9.52,0,0,0-7.31,2.81q-2.61,2.82-3.61,8.93a30.16,30.16,0,0,0-.35,3.93q0,4.05,1.89,5.93C1340.52,435.15,1342.46,435.78,1345.09,435.78Z"/></g><g class="cls-9"><path class="cls-2" d="M1372,443.92c-4.16,0-7.31-.95-9.48-2.85s-3.24-4.69-3.24-8.41a22.38,22.38,0,0,1,.3-3.55l3.72-22.77c.13-1.06.68-1.59,1.64-1.59h5.63c1,0,1.44.53,1.24,1.58l-3.54,22a15,15,0,0,0-.21,2.46,5.24,5.24,0,0,0,1.12,3.66,4.69,4.69,0,0,0,3.57,1.2,5.91,5.91,0,0,0,4.62-1.8,10.8,10.8,0,0,0,2.22-5.52l3.53-22c.2-1.05.75-1.58,1.65-1.58h5.66c1,0,1.45.53,1.25,1.59L1388,429.11q-1.2,7.44-5.11,11.12T1372,443.92Z"/></g><g class="cls-9"><path class="cls-2" d="M1408.67,404.75h7a1.57,1.57,0,0,1,1.64,1.47l5.39,35.24a1.93,1.93,0,0,1-.25,1.34,1.23,1.23,0,0,1-1.09.51h-5.79a1.45,1.45,0,0,1-1.6-1.47l-.85-5.9h-11.57l-2.74,5.9a2.07,2.07,0,0,1-1.9,1.47h-6.08a1,1,0,0,1-1-.52,1.51,1.51,0,0,1,.15-1.34l16.76-35.24a2.83,2.83,0,0,1,.75-1.13A1.83,1.83,0,0,1,1408.67,404.75Zm-4.28,23.38h8.3L1411,414l-.1,0Z"/></g><g class="cls-9"><path class="cls-2" d="M1424.4,411.47l.85-5.14c.13-1.05.67-1.58,1.6-1.58h23.37c1,0,1.45.53,1.25,1.58l-.8,5.14c-.2,1.09-.76,1.64-1.69,1.64h-7.44l-4.61,28.62c-.2,1.06-.75,1.58-1.65,1.58h-5.65c-1,0-1.45-.52-1.25-1.58l4.6-28.62h-7.33C1424.65,413.11,1424.24,412.56,1424.4,411.47Z"/><path class="cls-2" d="M1450.54,441.73l5.65-35.4c.13-1.06.67-1.58,1.6-1.58h5.71q1.56,0,1.26,1.53l-5.66,35.46c-.2,1.05-.75,1.57-1.65,1.57h-5.66C1450.76,443.31,1450.34,442.79,1450.54,441.73Z"/><path class="cls-2" d="M1486.1,404.09q6.45,0,10,3.64t3.56,10.78a31.88,31.88,0,0,1-.49,5.58q-3.2,19.83-18.56,19.83-6.43,0-10-3.61t-3.57-10.76a36.91,36.91,0,0,1,.45-5.57Q1470.8,404.09,1486.1,404.09Zm-4.63,31.74q7.13,0,9-11.8a28.61,28.61,0,0,0,.44-4.59q0-7.26-5.68-7.26-7.14,0-9,11.85a27.62,27.62,0,0,0-.45,4.59Q1475.78,435.84,1481.47,435.83Z"/><path class="cls-2" d="M1536.29,406.33l-5.7,35.41c-.2,1.05-.75,1.57-1.66,1.57h-5.43a1.64,1.64,0,0,1-1.71-1l-8.49-21.82-3.42,21.26c-.2,1.06-.75,1.59-1.64,1.59H1503c-1,0-1.43-.52-1.23-1.58l5.65-35.4a1.54,1.54,0,0,1,1.65-1.58h5.35a1.68,1.68,0,0,1,1.75,1l8.44,21.79,3.43-21.25c.13-1.06.66-1.58,1.6-1.58h5.4C1536,404.75,1536.42,405.28,1536.29,406.33Z"/></g></g></svg>